<svg xmlns="http://www.w3.org/2000/svg" version="1.1" xmlns:xlink="http://www.w3.org/1999/xlink" xmlns:svgjs="http://svgjs.com/svgjs" width="512" height="512" x="0" y="0" viewBox="0 0 512 512" style="enable-background:new 0 0 512 512" xml:space="preserve" class=""><g><path d="m65.64 300.63a164.52 164.52 0 0 0 225.85 6.19l187.64 187.63a9 9 0 1 0 12.73-12.73l-187.64-187.63a164.32 164.32 0 0 0 -238.58-225.85 164.33 164.33 0 0 0 0 232.39zm12.73-219.63a146.32 146.32 0 0 1 206.93 0 146.32 146.32 0 0 1 0 206.94c-57.05 57.06-149.88 57.06-206.93-.04a146.33 146.33 0 0 1 0-206.9z" fill="#000000" data-original="#000000" class=""></path><path d="m122.51 125.11a84 84 0 0 1 118.66 0 9 9 0 1 0 12.73-12.73 102 102 0 0 0 -144.12 0 9 9 0 0 0 12.73 12.73z" fill="#000000" data-original="#000000" class=""></path></g></svg>